<?xml version="1.0" encoding="UTF-8"?>
<!DOCTYPE svg PUBLIC "-//W3C//DTD SVG 1.1//EN" "http://www.w3.org/Graphics/SVG/1.1/DTD/svg11.dtd">
<!-- Creator: CorelDRAW -->
<svg xmlns="http://www.w3.org/2000/svg" xml:space="preserve" width="2048px" height="2048px" style="shape-rendering:geometricPrecision; text-rendering:geometricPrecision; image-rendering:optimizeQuality; fill-rule:evenodd; clip-rule:evenodd"
viewBox="0 0 2048 2048"
 xmlns:xlink="http://www.w3.org/1999/xlink">
 <defs>
  <style type="text/css">
   <![CDATA[
    .fil0 {fill:#009688}
    .fil2 {fill:#FFFFFE}
    .fil1 {fill:#FFFFFE;fill-rule:nonzero}
   ]]>
  </style>
 </defs>
 <g id="Layer_x0020_1">
  <metadata id="CorelCorpID_0Corel-Layer"/>
  <rect class="fil0" width="2048" height="2048" rx="256.001" ry="256.001"/>
  <polygon class="fil1" points="1184.13,1151.94 1376,1151.94 1376,1215.94 1184.13,1215.94 "/>
  <polygon class="fil1" points="1184.14,1024 1280,1024 1280,1088 1184.14,1088 "/>
  <polygon class="fil1" points="1184.13,895.998 1376,895.998 1376,960 1184.13,960 "/>
  <polygon class="fil1" points="1184.14,768.001 1280,768.001 1280,832.002 1184.14,832.002 "/>
  <polygon class="fil1" points="1184.13,640.001 1376,640.001 1376,704.003 1184.13,704.003 "/>
  <polygon class="fil1" points="1184.14,512 1280,512 1280,576.002 1184.14,576.002 "/>
  <polygon class="fil1" points="1184.13,384.124 1376,384.124 1376,448.126 1184.13,448.126 "/>
  <path class="fil2" d="M960.003 192.703l0 0zm31.9996 1219.19c31.3441,6.36378 59.3623,21.8906 81.1335,43.6642 28.9559,28.9536 46.8662,68.9552 46.8662,113.134 0,44.1803 -17.9102,84.1808 -46.8662,113.134 -28.9536,28.9559 -68.9552,46.8662 -113.134,46.8662 -44.1803,0 -84.1808,-17.9102 -113.134,-46.8662 -28.9559,-28.9536 -46.8662,-68.954 -46.8662,-113.134 0,-44.1792 17.9102,-84.1808 46.8662,-113.134 21.7713,-21.7736 49.7894,-37.3004 81.1335,-43.6642l0 -675.202 64.0016 0 0 675.202zm35.8831 88.9146c-17.3693,-17.3693 -41.3717,-28.115 -67.8839,-28.115 -26.5134,0 -50.5146,10.7457 -67.8839,28.115 -17.3693,17.3693 -28.115,41.3717 -28.115,67.8839 0,26.5134 10.7457,50.5146 28.115,67.8839 17.3693,17.3693 41.3705,28.115 67.8839,28.115 26.5122,0 50.5146,-10.7457 67.8839,-28.115 17.3693,-17.3693 28.115,-41.3705 28.115,-67.8839 0,-26.5122 -10.7457,-50.5146 -28.115,-67.8839zm44.7272 -1261.3c28.8768,28.8756 46.8024,68.7367 46.8024,112.609l0 939.171c45.9024,26.4248 84.6131,63.8764 112.491,108.723 30.4878,49.043 48.0969,106.85 48.0969,168.682 0,88.3619 -35.8193,168.363 -93.7288,226.272 -57.9095,57.9107 -137.91,93.7288 -226.272,93.7288 -88.3619,0 -168.363,-35.8181 -226.272,-93.7288 -57.9107,-57.9095 -93.7288,-137.91 -93.7288,-226.272 0,-61.8319 17.6091,-119.639 48.0969,-168.682 27.8776,-44.8465 66.5882,-82.2981 112.491,-108.723l0 -939.171c0,-43.8721 17.9256,-83.7331 46.8024,-112.609 28.8768,-28.878 68.7378,-46.8024 112.612,-46.8024 43.8709,0 83.7331,17.9244 112.61,46.8024z"/>
 </g>
</svg>
